<svg xmlns="http://www.w3.org/2000/svg" width="59" height="48" viewBox="0 0 59 48">
    <path fill="#FFF" d="M55.907 8.805c-.31-.541-1.004-.73-1.55-.423-.545.308-.736.997-.425 1.539 3.375 5.893 2.356 13.361-2.479 18.161l-.862.856c-.208-.543-.53-1.051-.97-1.487L37.944 15.858c.764-.373 1.47-.87 2.09-1.485l2.239-2.224c.443-.44.443-1.155 0-1.595-.444-.44-1.164-.44-1.608 0l-2.24 2.223c-1.051 1.045-2.45 1.62-3.938 1.62H30.01c-.301 0-.59.119-.803.33l-3.428 3.403c-1.017 1.01-2.674 1.01-3.691 0-1.018-1.01-1.018-2.655 0-3.665l7.824-7.768C34.694 1.95 42.16.906 48.065 4.158c.55.302 1.241.106 1.546-.439.304-.545.106-1.232-.443-1.534C45.91.391 42.072-.326 38.36.165c-3.474.459-6.654 1.903-9.26 4.194C25.896 1.541 21.82 0 17.504 0 12.829 0 8.433 1.808 5.127 5.09 1.82 8.372 0 12.736 0 17.378s1.82 9.006 5.127 12.288l.428.425c.075.074.158.135.245.184.076.976.488 1.93 1.238 2.676.835.829 1.932 1.243 3.028 1.243.057 0 .114-.002.171-.004-.002.057-.004.114-.004.171 0 1.136.446 2.204 1.254 3.007.836.829 1.932 1.243 3.029 1.243.057 0 .114-.002.17-.004-.002.057-.004.114-.004.171 0 1.136.446 2.204 1.255 3.007.835.829 1.931 1.243 3.028 1.243.058 0 .115-.002.173-.004-.046 1.145.37 2.305 1.248 3.178.809.803 1.884 1.245 3.028 1.245 1.144 0 2.22-.442 3.028-1.245l1.589-1.577 2.145 2.13c.809.803 1.884 1.245 3.028 1.245 1.144 0 2.22-.442 3.028-1.245.89-.883 1.305-2.061 1.247-3.22.072.004.143.006.215.006 1.096 0 2.193-.414 3.028-1.243.878-.872 1.294-2.032 1.248-3.177.058.003.115.005.173.005 1.144 0 2.22-.443 3.028-1.246.879-.872 1.294-2.031 1.248-3.176.058.003.115.004.173.004 1.144 0 2.22-.442 3.028-1.245.411-.408.72-.879.93-1.382.11-.053.214-.124.306-.215l2.204-2.188c5.556-5.516 6.727-14.1 2.847-20.873zM9.957 32c-.523 0-1.014-.203-1.384-.573-.37-.37-.573-.86-.573-1.383 0-.522.203-1.014.573-1.383l1.906-1.906c.37-.37.861-.573 1.384-.573.522 0 1.014.203 1.383.573.763.762.763 2.003 0 2.766l-1.906 1.906c-.37.37-.86.573-1.384.573zm2.98 3.792c-.37-.37-.573-.861-.573-1.384 0-.522.203-1.013.573-1.383l1.906-1.906c.37-.37.86-.574 1.383-.574s1.014.204 1.384.573c.763.763.763 2.004 0 2.767l-1.907 1.907c-.763.762-2.004.762-2.766 0zm4.363 4.363c-.37-.37-.573-.86-.573-1.383s.204-1.014.573-1.383l1.907-1.907c.37-.37.86-.573 1.383-.573s1.014.204 1.383.573c.763.763.763 2.004 0 2.767l-1.906 1.906c-.763.763-2.004.763-2.767 0zm9.763 2.457l-1.906 1.906c-.37.37-.86.573-1.383.573s-1.014-.203-1.384-.573c-.763-.763-.763-2.004 0-2.766l1.907-1.906c.37-.37.86-.573 1.383-.573s1.014.203 1.383.573c.37.369.573.86.573 1.383 0 .522-.203 1.013-.573 1.383zm21.074-10.717c-.382.378-.889.586-1.428.586-.54 0-1.046-.208-1.428-.586l-4.752-4.712-4.47-4.433c-.446-.442-1.17-.442-1.615 0-.446.442-.446 1.16 0 1.601l9.223 9.145c.787.78.787 2.05 0 2.831-.382.378-.889.586-1.428.586-.54 0-1.046-.208-1.428-.586l-9.223-9.145c-.445-.442-1.168-.442-1.614 0-.446.442-.446 1.16 0 1.602l4.469 4.43v.002l4.754 4.712c.787.78.787 2.051 0 2.832-.788.78-2.069.78-2.856 0l-4.752-4.713c-.088-.087-.187-.156-.292-.209l-1.356-1.344c-.446-.442-1.169-.442-1.615 0-.445.442-.445 1.159 0 1.601l6.36 6.305c.787.781.787 2.051 0 2.832-.381.378-.889.586-1.428.586-.54 0-1.046-.208-1.428-.586l-2.42-2.4c.185-.48.282-.993.282-1.521 0-1.14-.447-2.211-1.26-3.017s-1.893-1.25-3.042-1.25c-.058 0-.116.002-.174.005.046-1.149-.371-2.312-1.254-3.187-.813-.806-1.893-1.25-3.042-1.25-.058 0-.116.002-.174.004.046-1.148-.371-2.312-1.254-3.187-.813-.805-1.893-1.25-3.042-1.25-.058 0-.116.003-.174.005.046-1.149-.372-2.312-1.254-3.187-1.678-1.663-4.407-1.663-6.085 0l-1.968 1.951c-.248.246-.458.515-.633.8-2.682-2.824-4.154-6.496-4.154-10.393 0-4.053 1.592-7.863 4.482-10.729 2.89-2.866 6.734-4.444 10.821-4.444 3.715 0 7.227 1.303 10.006 3.692l-7.016 6.957c-.927.92-1.437 2.14-1.437 3.44 0 1.3.51 2.521 1.437 3.44.956.948 2.213 1.422 3.469 1.422 1.256 0 2.513-.474 3.47-1.422l3.108-3.083h4.025c.332 0 .661-.022.986-.062l12.604 12.497c.787.781.787 2.051 0 2.832z"/>
</svg>
