<svg xmlns="http://www.w3.org/2000/svg" width="24" height="24" viewBox="0 0 24 24">
    <g fill="#FFF">
        <path d="M17.377 0H6.623C2.971 0 0 2.971 0 6.623v10.754C0 21.029 2.971 24 6.623 24h10.754C21.029 24 24 21.029 24 17.377V6.623C24 2.971 21.029 0 17.377 0zm4.494 17.377c0 2.478-2.016 4.494-4.494 4.494H6.623c-2.478 0-4.494-2.016-4.494-4.494V6.623c0-2.478 2.016-4.494 4.494-4.494h10.754c2.478 0 4.494 2.016 4.494 4.494v10.754z"/>
        <path d="M12.273 6C8.813 6 6 8.814 6 12.273c0 3.459 2.814 6.272 6.273 6.272 3.459 0 6.272-2.813 6.272-6.272S15.732 6 12.273 6zm0 10.385c-2.268 0-4.113-1.844-4.113-4.112s1.845-4.113 4.113-4.113c2.268 0 4.113 1.845 4.113 4.113 0 2.268-1.846 4.112-4.113 4.112zM18.273 4.364c-.359 0-.71.145-.963.399-.255.253-.4.605-.4.964s.145.71.4.965c.252.253.604.399.963.399.36 0 .71-.146.964-.4.254-.253.4-.605.4-.964 0-.36-.146-.711-.4-.964-.253-.254-.605-.4-.964-.4z"/>
    </g>
</svg>
