<svg xmlns="http://www.w3.org/2000/svg" width="27" height="24" viewBox="0 0 27 24">
    <path fill="#FFF" d="M21.736 24c-.211 0-.42-.062-.6-.183l-6.79-4.576-3.64 2.603c-.286.204-.654.256-.986.138-.33-.118-.582-.39-.672-.729L7.22 14.368.687 11.885c-.411-.156-.684-.547-.687-.984-.003-.438.264-.833.674-.995L25.514.084c.112-.047.231-.075.352-.082.043-.003.086-.003.129 0 .249.015.493.115.684.301l.057.06c.158.18.245.398.261.621.004.057.004.113-.001.17-.003.04-.01.08-.018.121l-4.192 21.862c-.068.35-.308.645-.64.782-.132.054-.272.081-.41.081zm-6.822-7.325l6.097 4.052L24.3 3.818l-11.88 11.2 2.465 1.638.029.02zm-5.194-.857l.856 3.273 1.844-1.34-2.415-1.652c-.112-.077-.208-.172-.285-.28zM3.78 10.68l4.492 1.714c.322.123.565.393.653.725l.57 2.155c.025-.249.138-.483.322-.659L21.06 3.818 3.78 10.68z"/>
</svg>
