<svg xmlns="http://www.w3.org/2000/svg" width="123" height="107" viewBox="0 0 123 107">
    <g>
        <path d="M83.2 50.229H72.797V39.825c.015-2.098-1.675-3.811-3.774-3.825H54.003c-2.098 0-3.8 1.701-3.8 3.8v10.404H39.825c-2.098-.015-3.811 1.675-3.825 3.773v15.02c0 2.098 1.701 3.8 3.8 3.8h10.404v10.378c-.015 2.098 1.675 3.811 3.773 3.825h14.995c2.098 0 3.799-1.701 3.799-3.8V72.797h10.404c2.098.015 3.811-1.675 3.825-3.774V54.03c0-2.099-1.7-3.8-3.8-3.8zm-1.3 17.468H70.246c-1.408 0-2.55 1.141-2.55 2.55V81.9H55.305V70.246c0-1.408-1.142-2.55-2.55-2.55H41.1V55.33h11.654c1.408 0 2.55-1.142 2.55-2.55V41.1H67.67v11.654c0 1.408 1.142 2.55 2.55 2.55H81.9v12.392z"/>
        <path d="M105.537 16.6H84.683V7.642C84.814 3.556 81.625.136 77.56.004c-.208-.007-.415-.004-.622.006H46.062C42-.203 38.535 2.935 38.323 7.02c-.01.208-.013.416-.006.624v8.905H17.463C9.415 16.548 0 21.154 0 34.104v55.34C0 102.394 9.415 107 17.463 107h88.074c8.048 0 17.463-4.605 17.463-17.556V34.155c0-12.95-9.39-17.556-17.463-17.556zM43.379 7.642c0-.738 0-2.722 2.708-2.722h30.851c2.708 0 2.708 1.959 2.708 2.722v8.905H43.38V7.643zm74.56 81.801c0 11.246-8.656 12.467-12.402 12.467H17.463c-3.72 0-12.401-1.221-12.401-12.467V34.155c0-11.246 8.655-12.467 12.401-12.467h88.074c3.72 0 12.401 1.221 12.401 12.467v55.289z"/>
    </g>
</svg>
