<svg xmlns="http://www.w3.org/2000/svg" width="124" height="137" viewBox="0 0 124 137">
    <g>
        <path d="M77.391 137c-.947 0-1.715-.783-1.715-1.748V92.554c0-.617.32-1.189.842-1.503 12.577-7.622 20.303-21.416 20.346-36.33 0-.965.768-1.748 1.715-1.748.947 0 1.715.783 1.715 1.748-.046 15.792-8.047 30.451-21.188 38.817v41.714c0 .965-.767 1.748-1.715 1.748zM55.684 46.58H5.404c-.97 0-1.757-.818-1.757-1.827s.787-1.826 1.757-1.826h50.28c.97 0 1.757.817 1.757 1.826 0 1.01-.786 1.827-1.757 1.827z"/>
        <path d="M68.522 0C46.203 0 26.34 12.573 17.557 32.128H8.605c-.742 0-1.403.47-1.65 1.174-.7 1.996-1.36 4.04-1.961 6.076-7.273 24.6-6.587 50.885 1.96 75.067.248.703.91 1.174 1.651 1.174h41.49c.856 0 1.586-.623 1.726-1.472l11.057-67.023c.102-.62-.133-1.249-.616-1.648-.484-.399-1.142-.508-1.728-.287-.585.221-1.009.74-1.111 1.36l-10.813 65.55H9.851C1.935 88.932 1.412 63.86 8.356 40.378c.464-1.58.965-3.167 1.495-4.727h8.622c.14.017.28.017.42 0H30.11c-2.514 5.709-3.833 11.876-3.873 18.119l-10.39 21.557c-.263.545-.228 1.188.092 1.701.32.514.88.825 1.483.825h8.811v20.56c0 .971.784 1.76 1.751 1.76h16.148c.967 0 1.75-.789 1.75-1.76 0-.972-.783-1.76-1.75-1.76H29.734v-20.56c0-.971-.784-1.759-1.75-1.759h-7.769l9.345-19.393c.116-.239.176-.501.175-.767-.015-6.42 1.433-12.757 4.233-18.527h16.367c.967 0 1.751-.787 1.751-1.76 0-.97-.784-1.759-1.75-1.759h-28.91C29.958 14.665 48.143 3.52 68.522 3.52c28.042 0 50.97 21.31 51.944 47.854H68.562c-.967 0-1.751.788-1.751 1.76 0 .971.784 1.759 1.75 1.759h45.691c-.291 14.752-8.141 28.307-20.76 35.849-.532.316-.858.892-.858 1.514v41.22h-39.76v-11.061c0-.972-.783-1.76-1.75-1.76s-1.751.788-1.751 1.76v12.826c0 .972.784 1.76 1.75 1.76h43.262c.967 0 1.75-.788 1.75-1.76V93.248c13.198-8.288 21.332-22.72 21.619-38.359h4.495c.967 0 1.751-.788 1.751-1.76C124 23.836 99.113 0 68.522 0z"/>
        <path d="M63.368 47.493c-7.805 0-14.133-6.338-14.133-14.156 0-7.819 6.328-14.157 14.133-14.157 7.805 0 14.132 6.338 14.132 14.157-.009 7.814-6.331 14.147-14.132 14.156zm0-24.795c-5.866 0-10.62 4.763-10.62 10.639 0 5.875 4.754 10.638 10.62 10.638 5.865 0 10.62-4.763 10.62-10.638-.007-5.873-4.758-10.632-10.62-10.639z"/>
    </g>
</svg>
