<svg xmlns="http://www.w3.org/2000/svg" width="219" height="219" viewBox="0 0 219 219">
    <path fill="#FFF" fill-opacity=".654" d="M17.661 0H201.34C211.077 0 219 7.923 219 17.661V201.34c0 9.738-7.923 17.661-17.661 17.661H17.66C7.923 219 0 211.077 0 201.339V17.66C0 7.923 7.923 0 17.661 0zm183.736 7H17.603C11.757 7 7 11.711 7 17.5V42h77.759v-3.5c0-1.935 1.58-3.5 3.534-3.5h42.414c1.954 0 3.534 1.565 3.534 3.5V42H212V17.5c0-5.789-4.757-10.5-10.603-10.5zM7 49v7h78v-7H7zm106 71h-7v9.375l3.5 3.625 3.5-3.625V120zm7-7v-7H99v7h21zm7-14v-7H92v7h35zm-21-14v-7h7v7h7V71H99v14h7zm21-22V42H92v21h35zm7-7h78v-7h-78v7zm64 135v-7H21v7h177zm-92 7v14h7v-14h-7zm-88.397 14h81.294v-14.095H17.603c-1.954 0-3.534-1.575-3.534-3.524v-14.095c0-1.949 1.58-3.524 3.534-3.524h183.794c1.954 0 3.534 1.575 3.534 3.524v14.095c0 1.949-1.58 3.524-3.534 3.524h-81.294V212h81.294c5.846 0 10.603-4.743 10.603-10.571V64h-77.759v3.524c0 1.948-1.58 3.524-3.534 3.524h-3.535v14.095h3.535c1.954 0 3.534 1.575 3.534 3.524v14.095c0 1.949-1.58 3.524-3.534 3.524h-3.535v10.571c0 1.949-1.58 3.524-3.534 3.524h-3.535v10.571c0 .938-.37 1.833-1.035 2.492l-7.07 7.047c-.688.687-1.593 1.033-2.498 1.033-.905 0-1.81-.346-2.499-1.033l-7.069-7.047c-.664-.66-1.035-1.554-1.035-2.492v-10.571h-3.535c-1.954 0-3.534-1.575-3.534-3.524v-10.571h-3.535c-1.954 0-3.534-1.575-3.534-3.524V88.667c0-1.949 1.58-3.524 3.534-3.524h3.535V71.048h-3.535c-1.954 0-3.534-1.576-3.534-3.524V64H7v137.429C7 207.257 11.757 212 17.603 212z"/>
</svg>
